<?xml version="1.0" encoding="UTF-8"?>
<svg xmlns="http://www.w3.org/2000/svg" height="290" width="290" class="pyqrcode"><path transform="scale(10)" stroke="#000" class="pyqrline" d="M4 4.5h7m2 0h1m4 0h7m-21 1h1m5 0h1m2 0h1m4 0h1m5 0h1m-21 1h1m1 0h3m1 0h1m1 0h3m1 0h1m1 0h1m1 0h3m1 0h1m-21 1h1m1 0h3m1 0h1m1 0h1m1 0h1m1 0h1m1 0h1m1 0h3m1 0h1m-21 1h1m1 0h3m1 0h1m3 0h1m3 0h1m1 0h3m1 0h1m-21 1h1m5 0h1m3 0h2m2 0h1m5 0h1m-21 1h7m1 0h1m1 0h1m1 0h1m1 0h7m-11 1h1m-8 1h2m1 0h2m1 0h1m7 0h2m-17 1h1m4 0h1m3 0h1m3 0h2m1 0h1m-16 1h4m2 0h1m5 0h1m2 0h1m1 0h1m-21 1h6m2 0h2m1 0h1m3 0h4m-19 1h3m3 0h1m1 0h1m3 0h1m1 0h5m-11 1h1m1 0h1m1 0h3m3 0h1m1 0h1m-21 1h7m1 0h1m1 0h3m5 0h3m-21 1h1m5 0h1m2 0h1m3 0h1m4 0h3m-21 1h1m1 0h3m1 0h1m1 0h1m2 0h1m1 0h1m2 0h3m1 0h1m-21 1h1m1 0h3m1 0h1m1 0h4m1 0h4m-17 1h1m1 0h3m1 0h1m2 0h1m2 0h1m2 0h3m1 0h2m-21 1h1m5 0h1m3 0h2m3 0h1m1 0h1m1 0h1m-20 1h7m2 0h1m2 0h5m1 0h2"/></svg>
